<?xml version="1.0" standalone="no"?>
<!DOCTYPE svg PUBLIC "-//W3C//DTD SVG 20010904//EN"
 "http://www.w3.org/TR/2001/REC-SVG-20010904/DTD/svg10.dtd">
<svg version="1.0" xmlns="http://www.w3.org/2000/svg"
 width="1200.000000pt" height="1200.000000pt" viewBox="0 0 1200.000000 1200.000000"
 preserveAspectRatio="xMidYMid meet">

<g transform="translate(0.000000,1200.000000) scale(0.100000,-0.100000)"
fill="#000000" stroke="none">
<path d="M5575 8831 c-225 -131 -601 -348 -835 -484 l-425 -245 0 -977 0 -977
390 -225 c1025 -593 1287 -743 1295 -743 4 0 368 207 807 461 439 253 817 472
841 485 l42 25 0 974 0 974 -42 25 c-24 13 -402 232 -841 485 -439 254 -804
461 -810 460 -7 0 -196 -108 -422 -238z m1195 -374 l765 -442 0 -890 0 -890
-765 -442 c-437 -253 -771 -441 -780 -438 -13 5 -452 259 -1230 710 l-295 171
0 889 0 889 295 171 c758 440 1235 715 1240 715 3 0 349 -199 770 -443z"/>
<path d="M5382 7448 c3 -271 5 -297 25 -345 48 -119 128 -195 247 -234 l66
-22 0 -113 0 -113 -112 -3 -113 -3 -3 -52 -3 -53 286 0 286 0 -3 53 -3 52
-112 3 -113 3 0 113 0 113 66 22 c115 38 200 118 247 233 20 49 22 74 25 346
l3 292 -396 0 -396 0 3 -292z m678 -18 c0 -109 -5 -222 -11 -250 -23 -106
-111 -194 -216 -215 -135 -27 -258 36 -315 160 -21 47 -23 65 -26 278 l-4 227
286 0 286 0 0 -200z"/>
<path d="M6280 7545 l0 -195 39 0 c68 0 71 8 71 211 l0 179 -55 0 -55 0 0
-195z"/>
<path d="M6510 7538 c-1 -211 -8 -257 -47 -300 -27 -31 -92 -58 -140 -58 l-43
0 0 -335 0 -335 55 0 55 0 0 283 0 283 54 23 c73 30 139 101 160 172 12 40 16
100 16 261 l0 208 -55 0 -55 0 0 -202z"/>
<path d="M3062 4032 c-7 -5 -17 -37 -23 -73 -16 -101 -45 -207 -120 -439 -77
-235 -85 -293 -51 -339 38 -51 95 -53 151 -5 35 29 45 82 14 69 -36 -15 -65
-17 -73 -6 -13 22 10 111 95 371 90 276 111 360 95 391 -18 33 -61 48 -88 31z"/>
<path d="M9867 4008 c-25 -34 -82 -176 -112 -283 -10 -33 -19 -61 -20 -63 -2
-2 -18 6 -36 17 -57 35 -118 24 -203 -37 -104 -76 -178 -214 -178 -334 0 -109
45 -168 128 -168 47 0 113 39 155 92 l39 50 0 -42 c0 -110 145 -137 194 -36
19 39 9 49 -30 34 -41 -15 -64 -5 -64 28 0 56 94 373 178 598 52 142 54 150
37 163 -31 22 -62 16 -88 -19z m-181 -403 c21 -33 8 -89 -48 -202 -51 -106
-124 -186 -163 -181 -41 4 -52 44 -37 131 32 181 189 342 248 252z"/>
<path d="M2703 3993 c-7 -2 -13 -10 -13 -16 0 -29 -53 -121 -96 -167 -36 -39
-45 -53 -36 -62 29 -29 165 55 208 127 34 60 23 103 -31 118 -11 3 -26 3 -32
0z"/>
<path d="M7780 3980 c-24 -24 -25 -33 -4 -66 53 -80 -7 -194 -235 -447 -64
-71 -135 -153 -158 -183 l-41 -54 -7 30 c-13 61 15 149 122 374 91 191 101
232 70 280 -24 36 -75 66 -112 66 -38 0 -121 -25 -153 -46 -30 -20 -26 -50 10
-77 27 -20 29 -20 63 -4 19 9 53 20 75 23 l39 6 -72 -143 c-126 -249 -170
-425 -133 -524 18 -47 48 -75 78 -75 20 0 429 407 489 485 51 68 101 178 107
235 10 103 -78 180 -138 120z"/>
<path d="M1900 3974 c-153 -30 -202 -71 -147 -122 29 -27 61 -28 95 -3 75 53
190 65 262 29 73 -38 85 -63 85 -177 0 -95 -1 -100 -44 -186 -34 -70 -61 -106
-120 -165 -80 -79 -184 -144 -224 -138 -20 3 -22 8 -19 48 5 70 66 242 139
389 63 128 65 135 47 148 -11 8 -36 13 -59 11 -37 -3 -42 -7 -77 -68 -81 -138
-177 -435 -164 -505 8 -41 53 -82 101 -91 167 -31 435 177 516 401 32 86 33
224 2 281 -52 97 -140 144 -283 149 -47 2 -96 1 -110 -1z"/>
<path d="M3326 3959 c-52 -41 -23 -132 43 -132 53 0 102 63 86 112 -6 21 -46
41 -79 41 -13 0 -35 -9 -50 -21z"/>
<path d="M4136 3959 c-52 -41 -23 -132 43 -132 53 0 102 63 86 112 -6 21 -46
41 -79 41 -13 0 -35 -9 -50 -21z"/>
<path d="M7986 3959 c-52 -41 -23 -132 43 -132 53 0 102 63 86 112 -6 21 -46
41 -79 41 -13 0 -35 -9 -50 -21z"/>
<path d="M2580 3683 c-29 -11 -66 -38 -106 -77 -193 -194 -164 -466 49 -466
103 0 207 57 207 115 0 38 -22 40 -75 6 -53 -34 -102 -47 -140 -37 -27 7 -55
52 -55 89 0 22 5 25 57 32 117 14 221 74 259 146 19 37 18 112 -2 150 -28 56
-107 72 -194 42z m100 -74 c26 -47 -25 -134 -103 -179 -53 -31 -97 -39 -97
-19 0 7 16 44 35 84 54 113 136 169 165 114z"/>
<path d="M3253 3688 c-26 -13 -29 -34 -8 -62 8 -11 15 -26 15 -34 0 -8 -25
-77 -56 -154 -30 -77 -58 -162 -61 -189 -5 -44 -3 -50 25 -78 49 -49 133 -35
162 27 13 31 5 40 -40 44 -33 3 -35 5 -34 38 1 19 27 95 59 169 65 152 79 216
50 238 -22 15 -81 16 -112 1z"/>
<path d="M3709 3686 c-91 -32 -168 -105 -214 -201 -23 -47 -29 -78 -33 -145
-3 -77 -2 -88 20 -119 42 -62 71 -76 151 -76 110 1 197 57 197 126 0 35 -19
38 -46 8 -10 -12 -37 -30 -59 -40 -123 -57 -181 25 -130 184 45 143 176 253
219 184 9 -13 6 -27 -13 -61 -12 -25 -29 -47 -37 -50 -22 -9 -16 -44 10 -62
36 -23 65 -14 99 29 24 30 32 49 35 96 2 34 -1 67 -8 80 -28 54 -113 75 -191
47z"/>
<path d="M4063 3688 c-26 -13 -29 -34 -8 -62 8 -11 15 -26 15 -34 0 -8 -25
-77 -56 -154 -30 -77 -58 -162 -61 -189 -5 -44 -3 -50 25 -78 49 -49 133 -35
162 27 13 31 5 40 -40 44 -33 3 -35 5 -34 38 1 19 27 95 59 169 65 152 79 216
50 238 -22 15 -81 16 -112 1z"/>
<path d="M4510 3683 c-29 -11 -66 -38 -106 -77 -193 -194 -164 -466 49 -466
103 0 207 57 207 115 0 38 -22 40 -75 6 -53 -34 -102 -47 -140 -37 -27 7 -55
52 -55 89 0 22 5 25 57 32 117 14 221 74 259 146 19 37 18 112 -2 150 -28 56
-107 72 -194 42z m100 -74 c26 -47 -25 -134 -103 -179 -53 -31 -97 -39 -97
-19 0 7 16 44 35 84 54 113 136 169 165 114z"/>
<path d="M4892 3690 c-31 -13 -40 -40 -17 -56 25 -19 16 -59 -45 -200 -84
-192 -80 -278 15 -290 58 -8 120 37 208 150 38 50 67 82 63 71 -15 -38 -36
-120 -36 -142 0 -12 12 -36 27 -53 24 -30 30 -32 72 -27 34 4 52 13 73 36 15
17 28 40 28 51 0 18 -6 20 -42 18 -42 -3 -43 -2 -46 31 -4 42 17 106 80 246
65 145 64 140 34 160 -47 31 -66 15 -135 -107 -86 -151 -134 -222 -196 -285
-51 -52 -81 -66 -91 -40 -3 8 22 79 55 158 66 159 82 214 70 246 -14 39 -66
53 -117 33z"/>
<path d="M5524 3690 c-65 -26 -80 -107 -44 -239 l21 -73 -41 -53 c-23 -30 -56
-65 -73 -78 -18 -14 -42 -35 -55 -47 -22 -21 -22 -23 -6 -41 30 -33 55 -23
131 56 l72 74 30 -53 c41 -74 76 -99 124 -93 48 7 85 31 98 63 13 36 5 43 -40
31 -57 -15 -80 11 -116 129 l-13 45 94 98 c51 54 114 109 139 122 25 13 45 29
45 36 0 16 -32 33 -62 33 -49 0 -152 -85 -211 -174 l-26 -39 -5 34 c-4 19 -7
65 -9 104 -2 74 -10 83 -53 65z"/>
<path d="M6055 3681 c-50 -23 -93 -68 -105 -110 -16 -58 3 -112 80 -232 44
-68 49 -98 22 -122 -40 -36 -87 -14 -103 48 -12 49 -29 56 -66 30 -51 -36 -32
-111 37 -139 82 -33 167 -11 229 59 31 35 33 42 29 92 -4 45 -14 67 -61 136
-47 68 -57 90 -57 124 0 32 5 46 22 57 53 37 99 11 107 -60 5 -41 10 -50 29
-52 14 -2 33 7 53 28 26 26 30 36 25 62 -8 41 -23 57 -71 79 -51 24 -119 24
-170 0z"/>
<path d="M6580 3683 c-29 -11 -66 -38 -106 -77 -193 -194 -164 -466 49 -466
103 0 207 57 207 115 0 38 -22 40 -75 6 -53 -34 -102 -47 -140 -37 -27 7 -55
52 -55 89 0 22 5 25 57 32 117 14 221 74 259 146 19 37 18 112 -2 150 -28 56
-107 72 -194 42z m100 -74 c26 -47 -25 -134 -103 -179 -53 -31 -97 -39 -97
-19 0 7 16 44 35 84 54 113 136 169 165 114z"/>
<path d="M7913 3688 c-26 -13 -29 -34 -8 -62 8 -11 15 -26 15 -34 0 -8 -25
-77 -56 -154 -30 -77 -58 -162 -61 -189 -5 -44 -3 -50 25 -78 49 -49 133 -35
162 27 13 31 5 40 -40 44 -33 3 -35 5 -34 38 1 19 27 95 59 169 65 152 79 216
50 238 -22 15 -81 16 -112 1z"/>
<path d="M8344 3675 c-69 -35 -148 -120 -187 -202 -25 -53 -32 -84 -35 -144
-5 -91 13 -140 60 -169 74 -45 155 -9 230 100 15 23 16 24 11 3 -7 -31 15 -90
40 -108 56 -39 167 12 167 77 0 15 -6 17 -44 12 -51 -7 -60 2 -58 56 2 45 27
116 86 248 25 56 46 109 46 117 0 16 -30 35 -56 35 -10 0 -30 -12 -46 -27
l-28 -27 -24 23 c-38 36 -100 38 -162 6z m128 -62 c25 -23 23 -60 -11 -143
-39 -96 -88 -175 -134 -216 -73 -66 -108 -33 -90 86 18 114 81 231 147 271 38
23 64 24 88 2z"/>
<path d="M8803 3688 c-27 -13 -29 -30 -7 -62 14 -22 14 -30 -1 -84 -15 -60
-89 -252 -119 -310 -9 -17 -16 -36 -16 -41 0 -18 43 -51 67 -51 21 0 31 14 68
95 64 137 243 365 286 365 35 0 32 -27 -14 -127 -54 -118 -67 -162 -67 -230 0
-45 4 -54 31 -77 37 -32 81 -34 127 -6 43 27 73 101 35 85 -10 -4 -33 -9 -52
-12 l-34 -6 5 44 c3 24 27 94 53 154 58 132 68 196 36 237 -26 32 -79 45 -120
29 -31 -14 -109 -91 -166 -166 -21 -27 -35 -41 -30 -30 14 38 45 137 45 146 0
6 -11 21 -25 34 -26 27 -64 31 -102 13z"/>
<path d="M10150 3683 c-29 -11 -66 -38 -106 -77 -193 -194 -164 -466 49 -466
103 0 207 57 207 115 0 38 -22 40 -75 6 -53 -34 -102 -47 -140 -37 -27 7 -55
52 -55 89 0 22 5 25 57 32 117 14 221 74 259 146 19 37 18 112 -2 150 -28 56
-107 72 -194 42z m100 -74 c26 -47 -25 -134 -103 -179 -53 -31 -97 -39 -97
-19 0 7 16 44 35 84 54 113 136 169 165 114z"/>
</g>
</svg>
